<svg width="1433" height="1225" viewBox="0 0 1433 1225" fill="none" xmlns="http://www.w3.org/2000/svg">
<path d="M366.671 309.389C372.317 316.078 376.706 316.571 384.659 317.209C386.019 321.037 388.405 325.944 390.754 329.243C390.485 329.402 390.224 329.57 389.949 329.717C387.311 331.133 380.431 330.799 375.558 330.563C374.112 330.492 372.844 330.431 371.916 330.425C368.589 330.407 363.479 330.306 357.267 330.183C329.075 329.623 278.205 328.615 268.618 332.937C264.441 334.817 261.89 338.508 260.367 342.713C258.335 348.328 258.111 355.829 260.637 361.293C262.757 365.878 266.862 368.742 271.547 370.319C281.154 373.554 303.076 372.996 318.854 372.592C323.259 372.479 327.185 372.381 330.231 372.378L404.53 372.329C405.669 372.329 407.078 372.317 408.668 372.301C417.784 372.225 432.947 372.093 438.384 373.799L439.567 378.626C439.334 378.856 439.101 379.086 438.871 379.315C427.933 390.137 420.703 397.285 433.86 413.2C485.889 476.149 546.933 531.45 610.029 583.064C625.253 595.517 643.436 612.703 661.638 619.662C667.982 621.953 682.771 611.981 687.063 608.008C784.911 527.502 961.193 374.635 975.557 241.91C981.726 183.27 964.64 124.552 927.97 78.3755C876.057 14.043 795.375 -15.4936 714.276 9.62012C702.002 13.4215 686.72 20.6074 675.223 26.2925C674.599 26.6012 672.978 27.6711 671.155 28.8724C668.083 30.8976 664.447 33.2965 664.073 33.0514C659.074 29.7619 651.989 25.6174 646.867 22.6051C626.803 10.8006 604.506 3.55402 581.342 1.0651C525.861 -4.89718 471.155 14.5677 428.368 49.5474C380.156 88.9613 350.654 143.78 344.92 205.816C342.279 234.378 347.82 263.405 357.411 290.335C359.571 296.399 362.588 304.546 366.671 309.389Z" fill="#16423C"/>
<path d="M366.219 309.389C371.869 316.078 376.261 316.571 384.219 317.209C390.194 314.271 397.134 313.845 400.767 306.807C404.651 299.281 402.079 290.849 399.271 283.431C379.845 238.394 380.44 196.778 400.831 151.374C421.198 105.936 458.64 70.3296 505.064 52.2479C540.434 38.8281 580.423 37.1006 615.373 52.829C622.025 55.8358 628.41 59.4072 634.452 63.5039C636.405 64.8442 638.496 66.4985 640.691 68.2361C649.378 75.112 659.712 83.2909 669.696 78.4736C681.207 72.9196 690.704 64.8996 702.338 58.9937C741.785 38.6952 788.221 36.9481 829.084 54.2254C915.843 91.4383 961.427 202.126 920.184 287.694C867.577 396.847 770.441 484.199 678.479 560.707C673.911 564.508 668.66 569.627 663.682 572.705C612.546 533.506 564.029 491.011 518.433 445.496C498.452 425.256 479.486 402.468 460.109 381.665C456.167 377.435 450.468 377.11 445.045 376.804C443.785 376.733 442.543 376.663 441.342 376.543C440.778 377.052 439.542 378.072 439.168 378.626C438.935 378.856 438.702 379.086 438.473 379.315C427.526 390.137 420.291 397.285 433.457 413.2C485.525 476.149 546.614 531.45 609.757 583.064C624.992 595.517 643.189 612.703 661.404 619.662C667.753 621.953 682.553 611.981 686.848 608.008C784.769 527.502 961.182 374.635 975.556 241.91C981.73 183.27 964.63 124.552 927.933 78.3755C875.983 14.043 795.241 -15.4936 714.082 9.62012C701.798 13.4215 686.505 20.6074 675 26.2925C674.374 26.6012 672.753 27.6711 670.929 28.8724C667.854 30.8976 664.215 33.2965 663.841 33.0514C658.838 29.7619 651.748 25.6174 646.622 22.6051C626.544 10.8006 604.23 3.55402 581.049 1.0651C525.526 -4.89718 470.78 14.5677 427.961 49.5474C379.713 88.9613 350.189 143.78 344.451 205.816C341.809 234.378 347.354 263.405 356.952 290.335C359.113 296.399 362.133 304.546 366.219 309.389Z" fill="white"/>
<path d="M570.762 277.719C562.332 293.994 554.35 310.827 545.023 326.702C527.652 327.214 390.193 327.451 386.5 325.357C386.131 325.539 385.775 325.73 385.397 325.897C381.788 327.507 372.373 327.127 365.704 326.859C363.725 326.779 361.989 326.709 360.719 326.702C356.167 326.681 349.175 326.566 340.673 326.427C302.093 325.789 232.478 324.643 219.359 329.559C213.643 331.698 210.151 335.895 208.068 340.678C205.286 347.064 204.98 355.595 208.437 361.81C211.337 367.025 216.956 370.282 223.367 372.076C236.514 375.755 266.513 375.121 288.106 374.661C294.134 374.532 299.507 374.421 303.675 374.417L405.351 374.362C406.911 374.362 408.839 374.348 411.014 374.33C423.49 374.243 444.24 374.094 451.681 376.034L453.299 381.524C453.81 380.894 455.5 379.734 456.271 379.155C471.324 376.556 480.94 376.163 495.139 374.505C544.151 373.146 564 377.048 576.978 370.913C589.353 365.06 595.477 350.088 614.672 312.736C625.324 291.827 636.114 270.967 647.043 250.156C650.157 244.091 655.582 230.526 658.826 226.199L660.373 225.917C665.181 228.752 678.244 255.145 681.886 261.652L724.904 337.676C735.975 357.546 747.729 378.465 759.957 397.845C765.009 404.983 768.668 410.414 779.085 412.253C796.18 415.274 808.848 409.041 814.176 395.184C820.074 379.838 822.896 363.799 827.205 348.022L856.758 238.636C903.683 239.092 950.612 239.284 997.537 239.214C1001.18 239.217 1005.74 239.259 1010.84 239.304C1030.66 239.479 1058.47 239.726 1071.24 238.092C1079.81 233.201 1082.03 230.989 1087.55 223.635C1088.12 217.371 1087.94 213.588 1087.55 207.265C1082.44 200.166 1077.9 196.936 1069.71 192.533C1064.74 192.258 1059.77 192.091 1054.79 192.038C1005.63 191.808 956.464 191.801 907.296 192.028C901.285 192.014 895.219 191.969 889.124 191.923C869.062 191.774 848.693 191.62 829.062 192.585C811.116 193.467 803.872 218.511 801.177 229.878C794.65 257.381 786.195 284.515 779.312 311.945C778.779 314.077 778.964 317.47 779.144 319.693C768.425 304.94 759.278 287.616 750.349 271.922L706.866 194.641C698.461 179.72 688.79 154.975 672.312 145.827C661.861 140.025 643.48 143.546 637.313 152.805C627.768 167.139 620.185 183.326 612.199 198.494L570.762 277.719Z" fill="white"/>
<path d="M151.783 286.956C135.549 275.16 115.431 269.986 95.5185 272.484C81.4861 273.654 19.0117 280.277 22.8259 305.201C26.0946 326.556 39.4352 353.093 45.0075 374.696C61.0961 424.681 78.6523 474.742 91.2586 525.82C101.781 568.457 109.819 612.041 119.058 655.341C136.328 736.281 137.486 826.241 187.516 896.161C198.07 909.672 212.011 921.584 224.908 932.735C277.91 978.552 341.746 1016.61 378.964 1077.68C394.3 1102.84 399.569 1125.62 397.548 1154.91C397.311 1158.36 396.742 1162.25 396.143 1166.33C393.969 1181.19 391.403 1198.71 402.912 1207.9C412.874 1214.84 438.792 1210.79 455.396 1208.2C458.918 1207.64 462.025 1207.16 464.467 1206.86L551.754 1196.44C556.416 1196.01 561.583 1195.52 566.181 1195.07C607.684 1191.01 626.413 1190.33 635.407 1180.63C644.074 1171.29 643.703 1153.57 645.962 1116.38C649.25 1066.26 650.621 1016.02 650.071 965.782C649.515 933.505 648.83 882.834 634.626 854.406C603.543 792.211 542.013 742.999 486.979 702.719C458.488 681.865 426.704 665.16 400.491 641.577C352.815 597.718 331.127 529.009 270.17 499.515C260.556 494.813 251.905 490.862 241.255 488.917C233.281 434.18 198.172 321.234 151.783 286.956Z" fill="#16423C"/>
<path d="M107.267 326.029C108.976 326.086 110.553 326.235 111.88 326.496C113.253 326.765 114.105 327.106 114.549 327.39L114.55 327.391C125.769 334.57 135.563 346.497 144.156 361.431C152.727 376.33 159.946 393.945 166.143 412.172C178.27 447.842 186.12 484.581 192.879 508.131C185.902 516.735 183.6 529.294 182.453 538.758C179.027 567.025 184.658 610.722 195.851 652.067C201.464 672.802 208.514 693.091 216.621 710.712C224.704 728.282 233.945 743.438 244.035 753.702C254.155 763.998 266.072 772.068 277.639 779.82C289.32 787.647 300.626 795.139 310.212 804.468L310.212 804.469C313.611 807.776 316.48 811.586 319.357 815.701C322.169 819.725 325.095 824.204 328.347 828.322L328.348 828.323C332.852 834.022 338.267 837.749 346.07 838.533L346.071 838.533C353.947 839.322 362.46 837.19 368.777 831.821L368.778 831.822C374.879 826.638 378.376 819.495 378.699 811.473L378.699 811.471C379.139 800.458 373.27 791.789 367.967 784.497C352.113 762.702 332.028 748.344 310.847 733.456L310.846 733.456C301.258 726.714 291.626 720.527 284.329 712.382C273.618 700.425 263.63 677.76 255.785 653.395C247.991 629.19 242.531 604.017 240.578 587.596C238.847 573.036 238.786 558.84 239.404 544.151C266.159 555.204 279.409 572.579 297.204 597.091C318.049 625.803 336.616 654.96 363.557 679.756C388.277 702.506 415.827 718.291 442.671 736.794L442.683 736.802C474.712 758.71 500.35 779.528 529.105 805.397C536.8 812.561 544.201 820.035 551.296 827.798L551.309 827.812C570.02 848.093 580.356 862.482 586.499 878.271C592.663 894.115 594.739 911.699 596.265 938.732L596.266 938.738C598.341 974.476 598.605 1010.3 597.055 1046.06L597.054 1046.06L597.054 1046.07C596.386 1062.12 595.359 1078.16 594.334 1094.22C593.385 1109.09 592.439 1123.99 591.789 1138.89C571.896 1140.65 551.809 1143.48 532.152 1145.77L527.995 1146.24C502.65 1149.09 477.374 1151.57 451.985 1155.51C452.107 1145.99 452.238 1135.78 451.079 1126.17C445.095 1076.58 419.772 1036.33 387.345 1001.58C354.985 966.896 315.197 937.335 280.082 909.389C255.913 890.155 229.541 870.125 216.891 843.194C202.522 812.602 194.896 779.695 188.931 745.969C183.185 713.476 178.941 679.887 171.624 647.613L170.906 644.495C167.963 631.824 165.504 619.007 163.07 606.128C160.793 594.076 158.534 581.959 155.93 569.969L155.405 567.572C150.024 542.252 144.005 517.066 137.354 492.046L137.351 492.031L137.346 492.015L135.858 486.639C120.81 432.667 102.797 380.648 84.5902 327.997C88.8771 327.334 92.7307 326.935 97.6016 326.47L97.6603 326.463C100.228 326.18 103.848 325.915 107.267 326.029Z" fill="#16423C" stroke="#16423C" stroke-width="8"/>
<path d="M1295.02 245.262C1282.53 243.702 1263.2 242.735 1250.96 245.977C1183.1 262.007 1162.33 370.217 1149.58 427.827C1146.71 440.757 1143.84 457.034 1143.18 470.062C1122.72 475.89 1102.1 489.802 1087.11 504.655C1048.14 543.273 1030.47 598.29 991.752 637.586C970.581 659.069 944.158 676.345 920.409 694.9C875.591 729.921 816.065 788.519 788.533 838.079C778.23 856.627 771.608 875.356 769.064 896.536C766.276 919.703 767.856 943.374 768.975 966.619C771.504 1019.09 777.294 1070.66 783.9 1122.74C784.494 1127.41 784.997 1132.44 785.518 1137.63C786.878 1151.21 788.342 1165.8 791.742 1177.47C793.467 1183.4 797.918 1188.89 803.503 1191.63C815.359 1197.45 885.916 1197.28 903.733 1198.37C936.137 1200.07 969.948 1201.12 1002.29 1203.46C1047.02 1206.71 1041.96 1183 1036.34 1156.68C1034.33 1147.26 1032.25 1137.5 1032.35 1128.53C1032.39 1070.56 1073.6 1022.49 1112.79 984.102C1149.43 947.469 1212.33 901.412 1235.02 856.184C1265.27 795.381 1265.16 730.464 1272.65 664.986C1280.24 606.301 1286.38 546.547 1297.22 488.378C1310.47 420.107 1328.54 352.797 1346.17 285.569C1354.92 252.185 1325.44 248.785 1300.9 245.958C1298.9 245.73 1296.94 245.502 1295.02 245.262Z" fill="#16423C"/>
<path d="M1296.28 291.662C1286.38 290.793 1279.31 290.175 1268.49 292.235C1224.39 307.889 1204.5 440.52 1196.76 483.715C1201.12 490.031 1204.61 495.878 1207.01 503.195C1217.41 534.99 1211.5 584.22 1205.57 616.801C1199.34 651.004 1190.31 692.469 1169.97 721.462C1164.72 728.937 1158.2 735.488 1151.45 741.602C1136.3 755.324 1119.25 766.895 1104.66 781.237C1094.98 790.76 1090 808.253 1080.04 815.731C1074.97 819.538 1066.91 820.466 1060.92 819.187C1054.2 817.748 1048.01 813.499 1044.39 807.636C1040.91 802.02 1040.07 795.6 1041.84 789.243C1043.53 783.165 1046.85 777.645 1050.03 772.249C1062.62 750.859 1082.07 735.243 1101.07 719.815C1109.8 712.727 1119.05 705.579 1126.24 696.862C1154.98 661.991 1168.59 561.246 1160.09 516.308C1127.04 532.692 1115.33 551.769 1096.72 582.175C1082.48 605.464 1068.58 630.074 1051.02 651.003C1024.53 683.64 996.357 700.619 964.304 726.457C933.579 751.222 901.986 779.66 875.657 809.053C853.785 834.856 830.553 864.172 825.8 898.757C824.224 910.235 824.705 925.532 824.946 937.388C825.243 958.361 826.259 979.319 827.993 1000.22C830.317 1027.58 833.035 1054.91 836.15 1082.19C838.704 1103.01 841.933 1123.16 844.114 1144.11C881.53 1145.3 918.906 1147.45 956.325 1148.7C968.171 1149.1 980.591 1149.71 992.398 1150.83C991.599 1138.31 990.38 1125.23 991.345 1112.77C998.354 1022.35 1071.66 959.2 1133.98 901.911C1154.21 883.314 1177.82 863.655 1193.48 840.811C1226.4 785.612 1224.85 705.878 1233.01 644.357C1239.47 595.673 1244.67 546.077 1252.58 498.599C1260 455.778 1269.16 413.272 1280.03 371.193C1286.46 345.273 1293.24 317.528 1300.91 292.058C1299.29 291.926 1297.75 291.79 1296.28 291.662Z" fill="white"/>
<path d="M1048.7 897.905C1064.51 875.349 1072.06 830.967 1028.06 840.329C1012 850.709 996.013 892.113 990.348 910.425C984.542 929.179 1005.41 942.831 1023.8 937.632C1042.31 926.383 1038.9 911.896 1048.7 897.905Z" fill="#16423C"/>
<path d="M443.081 888.942C441.251 890.189 439.528 891.066 438.011 891.682C440.142 889.815 441.947 888.795 442.906 888.33L443.081 888.942Z" fill="#16423C" stroke="#16423C" stroke-width="106"/>
<path d="M1085.46 101.263C1135.26 97.4898 1178.7 134.779 1182.52 184.578C1186.34 234.377 1149.1 277.856 1099.3 281.724C1049.44 285.596 1005.89 248.289 1002.06 198.422C998.236 148.556 1035.59 105.041 1085.46 101.263Z" fill="#174B5A"/>
<path d="M1091.18 115.008C1133.45 114.392 1168.2 148.178 1168.79 190.449C1169.37 232.72 1135.55 267.449 1093.28 267.993C1051.06 268.538 1016.38 234.772 1015.8 192.551C1015.22 150.331 1048.96 115.624 1091.18 115.008Z" fill="#D4EBE2"/>
<path d="M1070.86 177.299C1075.6 177.272 1100.88 176.284 1103.37 178.056C1106.47 180.246 1102.73 224.055 1104.82 231.258C1105.72 234.362 1112.49 232.947 1115.11 234.251C1116.53 235.855 1116.72 237.14 1116.79 239.22C1117.08 248.01 1108.09 245.758 1102.04 245.701C1091.88 245.69 1081.65 245.818 1071.53 245.683C1068.1 245.637 1067.26 239.248 1068.09 236.681C1069.85 231.277 1074.76 234.777 1078.79 232.494C1080.47 230.539 1079.86 219.939 1079.85 216.88C1079.89 207.844 1079.82 198.807 1079.64 189.773C1077.05 189.582 1070.25 190.249 1069.04 188.03C1067.11 184.514 1067.36 179.571 1070.86 177.299Z" fill="#174B5A"/>
<path d="M1090.03 137.185C1097.95 135.893 1105.38 141.494 1106.62 149.688C1107.85 157.881 1102.43 165.558 1094.5 166.822C1086.6 168.084 1079.2 162.487 1077.97 154.312C1076.74 146.139 1082.13 138.475 1090.03 137.185Z" fill="#174B5A"/>
</svg>
